# xmcd
#
# Track frame offsets:
#  150
#  13792
#  25875
#  38827
#  49515
#  62780
#  75852
#  87025
#  99270
#  109852
#  123925
#  134732
#
# Disc length: 1940 seconds
#
# Revision: 2
# Processed by: cddbd v1.4PL0 Copyright (c) Steve Scherf et al.
# Submitted via: AltoMP3_Maker 3.0
#
DISCID=8d07920c
DTITLE=George Jones and Tammy Wynette - Encore
DYEAR=1990
DGENRE=Country
TTITLE0=Golden Ring
TTITLE1=Two Story House
TTITLE2=Southern California
TTITLE3=Near You
TTITLE4=We're Gonna Hold On
TTITLE5=Let's Build A World Together
TTITLE6=We Go Together
TTITLE7=Love In The Meantime
TTITLE8=Take Me
TTITLE9=The Ceremoney
TTITLE10=We Loved It Away
TTITLE11=(We're Not) The Jet Set
EXTD=
EXTT0=
EXTT1=
EXTT2=
EXTT3=
EXTT4=
EXTT5=
EXTT6=
EXTT7=
EXTT8=
EXTT9=
EXTT10=
EXTT11=
PLAYORDER=
